<?xml version="1.0" standalone="no"?>
<!DOCTYPE svg PUBLIC "-//W3C//DTD SVG 20010904//EN"
 "http://www.w3.org/TR/2001/REC-SVG-20010904/DTD/svg10.dtd">
<svg version="1.0" xmlns="http://www.w3.org/2000/svg"
 width="572.000000pt" height="572.000000pt" viewBox="0 0 572.000000 572.000000"
 preserveAspectRatio="xMidYMid meet">
<metadata>
Created by potrace 1.11, written by Peter Selinger 2001-2013
</metadata>
<g transform="translate(0.000000,572.000000) scale(0.100000,-0.100000)"
fill="#000000" stroke="none">
<path d="M2565 4574 c-346 -17 -797 -94 -1080 -184 -428 -138 -685 -342 -645
-514 48 -210 450 -418 1035 -534 525 -105 1058 -127 1615 -67 507 55 988 195
1230 358 76 51 166 141 190 191 26 55 26 127 -1 183 -26 54 -138 158 -226 211
-276 163 -726 288 -1223 337 -146 15 -723 27 -895 19z"/>
<path d="M4850 3429 c-164 -121 -547 -260 -915 -334 -701 -139 -1630 -125
-2293 36 -282 69 -567 183 -726 291 -67 46 -82 41 -80 -26 5 -231 467 -470
1153 -597 465 -86 1160 -93 1676 -18 539 78 958 229 1157 417 84 80 110 130
106 208 -2 32 -7 59 -13 60 -5 2 -35 -15 -65 -37z"/>
<path d="M5124 3193 c-38 -75 -163 -206 -262 -273 -302 -204 -837 -357 -1452
-415 -535 -50 -1185 -15 -1679 91 -63 13 -116 22 -119 20 -8 -9 241 -124 348
-161 149 -51 355 -102 554 -135 297 -49 461 -62 836 -65 422 -4 599 7 930 61
579 94 1043 298 1152 507 28 54 29 138 3 187 -35 66 -197 209 -270 236 -7 3
-25 -20 -41 -53z"/>
<path d="M928 2805 c-188 -58 -363 -137 -478 -215 -62 -43 -150 -132 -173
-176 -39 -76 -30 -151 28 -227 149 -195 541 -359 1100 -461 215 -39 612 -81
595 -63 -3 3 -66 27 -140 52 -161 56 -346 143 -450 213 -101 68 -209 181 -250
262 -54 107 -60 142 -60 390 l-1 225 -34 16 c-32 15 -38 15 -137 -16z"/>
<path d="M5375 2438 c-99 -66 -314 -165 -488 -222 -696 -232 -1725 -279 -2542
-115 -355 71 -741 209 -915 328 -65 44 -70 42 -70 -32 0 -142 208 -314 523
-431 637 -238 1624 -303 2442 -160 300 52 540 123 740 218 137 65 212 113 282
179 78 74 107 127 108 199 0 31 -4 61 -10 67 -7 6 -30 -4 -70 -31z"/>
<path d="M254 1834 c-55 -293 708 -617 1606 -683 591 -44 1189 1 1667 125 228
59 518 175 598 239 22 18 33 18 -200 -5 -55 -6 -219 -13 -365 -16 -201 -4
-306 -11 -435 -29 -304 -43 -492 -56 -805 -56 -864 0 -1564 147 -1983 417 -37
24 -70 44 -72 44 -2 0 -7 -16 -11 -36z"/>
</g>
</svg>
